<?xml version="1.0" encoding="utf-8"?>
<!-- Generator: Adobe Illustrator 27.2.0, SVG Export Plug-In . SVG Version: 6.00 Build 0)  -->
<svg version="1.1" id="Слой_1" xmlns="http://www.w3.org/2000/svg" xmlns:xlink="http://www.w3.org/1999/xlink" x="0px" y="0px"
	 viewBox="0 0 469.2 334.7" style="enable-background:new 0 0 469.2 334.7;" xml:space="preserve">
<style type="text/css">
	.st0{fill:#D3D3D3;}
</style>
<g>
	<path class="st0" d="M230.2,295c-8.7,0.4-21.8-1.1-34.7-3.6c-4.3-0.8-6.5,0.5-8.3,4.1c-5.4,10.3-11,20.5-16.5,30.8
		c-3.1,5.8-8,8.7-13.1,8.3c-7.7-0.7-14.2-10.1-9.6-18.3c7.2-12.8,14-25.8,20.9-38.7c19.9-36.8,39.8-73.6,59.7-110.3
		c22.5-41.6,45.1-83.1,67.7-124.7c6.4-11.8,12.8-23.8,19.4-35.5c2.8-5.1,8.3-7.4,13.5-6.4c5,1,8.8,5,9.6,10.3
		c0.5,3.5-0.8,6.5-2.4,9.5c-6.1,11.2-12.1,22.6-18.5,33.7c-2,3.6-1.1,4.8,2.4,6c40.4,14.7,76.2,37.2,109.2,64.3
		c12.3,10.2,24.3,20.7,34.8,32.8c6.9,7.9,6.6,17.4-0.6,25.2c-15.9,17.1-33.6,32.3-52.3,46.3c-21.2,15.8-43.6,29.4-67.6,40.5
		C309.1,285.2,273.1,295,230.2,295z M306.7,244.2c1.2-0.4,1.8-0.5,2.4-0.7c42.3-16.1,78.9-41.3,112.4-71.3c2.6-2.3,1.5-3.8-0.6-5.6
		c-24.9-22.3-51.7-41.9-81.5-57.3c-9.4-4.9-19-9.4-29.5-13C348.6,137.6,349.1,202.1,306.7,244.2z M235.1,235.6
		c1.9-0.1,5.1-0.1,8.2-0.6c32.6-5.3,54.7-28.2,58.1-61.3c1.9-18.4-3.9-34.8-15.9-49c-2.2-2.5-3.8-3.5-5.8,0.3
		c-4.7,9-9.6,17.9-14.5,26.8c-1,1.8-1,3.3-0.4,5.2c5.4,18.5-3.3,34.8-21.7,40.9c-1.8,0.6-3.6,1.2-4.5,2.9
		c-5.5,10.1-10.9,20.2-16.4,30.3c-1.1,2-0.4,3,1.7,3.6C227.2,235.7,230.5,235.4,235.1,235.6z"/>
	<path class="st0" d="M238.4,44.3c9-0.3,21.3,1.2,33.5,3c3.5,0.5,4.2,1.7,2.5,4.9c-8.7,15.8-17.3,31.6-25.7,47.4
		c-1.5,2.8-3.7,2.5-6,2.2c-10.4-1.2-20.6-0.2-30.5,3.3c-43.4,15.4-58.9,69.3-29.9,105.1c2.9,3.6,3.1,6.2,0.9,10.1
		c-10,18.1-19.8,36.2-29.5,54.5c-2.1,4-4.3,4.5-8.3,3c-28.1-10.8-54.3-25.4-78.9-42.7c-21-14.8-40.6-31.3-58.6-49.7
		c-6.1-6.2-9.9-12.9-6.9-22c1.4-4.1,4.2-7.2,7.1-10.1C46,115.5,88.7,84.7,138.3,64.2c23.9-9.9,48.8-16.6,74.8-18.9
		C220.5,44.7,227.8,44.4,238.4,44.3z M159.4,95.9c-5.2,2.1-9.2,3.7-13.2,5.4c-2.4,1-4.8,2.3-7.2,3.4c-33.6,15.8-63.3,37.3-91,61.8
		c-2.4,2.1-2.8,3.4-0.1,5.8c8.8,7.7,17.5,15.4,26.8,22.4c25.1,19,51.7,35.3,81,47c1.5,0.6,3.1,1.8,5.1,1.1
		C118.1,198.7,123,134.1,159.4,95.9z"/>
	<path class="st0" d="M202.4,166.9c0.3-12.9,9.2-25.7,20.6-29.3c1.3-0.4,3-1.6,4.1-0.1c0.9,1.2-0.4,2.5-1,3.6
		c-6.1,11.3-12.1,22.5-18.2,33.8c-0.6,1.1-0.9,3-2.4,2.9c-1.9-0.1-1.8-2.1-2.1-3.5C203,171.8,202.7,169.4,202.4,166.9z"/>
</g>
</svg>
