<svg xmlns="http://www.w3.org/2000/svg" viewBox="0 0 250.42 181.36">
    <style type="text/css">
        .st0{fill:#FF9500;stroke:#000000;stroke-width:1.5;stroke-miterlimit:10;}
    </style>
    <path class="st0" d="M250.25,83.32c.25-.49.21-1.19-.07-1.39-12.26,2.19-40.86,14.82-57,14.88-22.6,3.76-96.43,1-95.07-26.4.48-15.3-20.8-10.12-14,3.78C103.06,115.39,221.79,114.73,250.25,83.32Z"/>
    <path d="M228.24,65.48c27.23-28.62-26.75-59.19-6-37.6,28.64,30.63-30.56,55-54.44,54.65a75.39,75.39,0,0,1-28.46-4c-11.19-3.63-20-4.52-20.65-2.2C142,99.37,206.72,89.37,228.24,65.48Z"/>
    <path d="M146.22,116.23C119,108.11,74.48,101.86,64.12,79c-3.37-15.27,3.23-18.36,21.13-24.1,13.29-4.35,14.81-6.2,7.85-10.05-5.31-2.92-12.71-3.08-20.43-.36-8.14,2.18-16.4,9.46-23.75,15.74-11.26,42.1,58.28,55.92,90.92,57.64C145.35,117.83,147.21,117.42,146.22,116.23Z"/>
    <path class="st0" d="M200.29,58C220.48,22.1,116-8.33,89.9,2.06c40.92,9.38,67.45,11.08,92,30.67,8.06,7.12,9,18.61,2.23,25.46-3.71,3.7-8.6,5.49-21.78,7.87C116.82,75,186.61,81.5,200.29,58Z"/>
    <path d="M168.05,55.09c8-18.28-16.06-27.42-32.28-33.36C100.6,10.64,36.05,8.36,5.13,32,.4,37,6.75,35.89,17.61,31.91c35.89-13.73,84.44-13.8,116.23-2.78,11.9,5.91,25.53,9.26,19.81,21C147.74,60.68,164.68,62.47,168.05,55.09Z"/>
    <path d="M145.15,60.43c3.37-15.57-43.26-11.24-43.27-3.33C100.07,70.35,140.34,69.59,145.15,60.43Z"/>
    <path class="st0" d="M135.33,43.5c-5-12.48-23.08-14-49.56-15.55C55.87,27.44,39,31.88,24.44,44.12,7.33,57.6,2.28,74.57,21,89.21c3.55,2,2.88,1,1.36-2.3C10.68,63.56,37.19,47,57.5,41.83c9.35-2.49,24.61-3.57,36.27-2.51C98.52,39.09,139.54,51,135.33,43.5Z"/>
    <path d="M4,152.56a3.84,3.84,0,0,1-2.82-1.17A3.85,3.85,0,0,1,0,148.56v-12a3.83,3.83,0,0,1,1.17-2.82A3.81,3.81,0,0,1,4,132.56H28a3.8,3.8,0,0,1,2.82,1.18A3.84,3.84,0,0,1,32,136.56v2H28a2,2,0,0,0-2-2H6a2,2,0,0,0-2,2v8a2,2,0,0,0,2,2H26a2,2,0,0,0,2-2h4v2a4,4,0,0,1-4,4Z"/>
    <path d="M38,152.56a4,4,0,0,1-4-4v-12a4,4,0,0,1,4-4H58a4,4,0,0,1,4,4v12a4,4,0,0,1-4,4Zm18-4a2,2,0,0,0,2-2v-8a2,2,0,0,0-2-2H40a2,2,0,0,0-1.42.59,1.92,1.92,0,0,0-.58,1.41v8a2,2,0,0,0,2,2Z"/>
    <path d="M64,152.56v-18a2,2,0,0,1,.58-1.42,2,2,0,0,1,1.42-.59h2l12,6,12-6h2a1.92,1.92,0,0,1,1.41.58,2,2,0,0,1,.59,1.42v18H92v-16l-12,6-12-6v16Z"/>
    <path d="M98,152.56v-18a2,2,0,0,1,.57-1.42,2,2,0,0,1,1.42-.59h22a4,4,0,0,1,4,4v8a4,4,0,0,1-4,4H102v4Zm22-8a2,2,0,0,0,2-2v-4a1.92,1.92,0,0,0-.58-1.41,2,2,0,0,0-1.42-.59H102v8Z"/>
    <path d="M132,152.56a4,4,0,0,1-4-4v-16h4v14a2,2,0,0,0,2,2h16a2,2,0,0,0,2-2v-14h4v16a4,4,0,0,1-4,4Z"/>
    <path d="M170,152.56v-16H158v-4h28v4H174v16Z"/>
    <path d="M190,152.56a2,2,0,0,1-2-2v-16a2,2,0,0,1,.57-1.42,2,2,0,0,1,1.42-.59h30v4H192v4h26v4H192v4h28v4Z"/>
    <path d="M222,152.56v-18a2,2,0,0,1,2-2h22a4,4,0,0,1,4,4v4a4,4,0,0,1-4,4h-4l8,8h-6l-8-8H226v8Zm22-12a2,2,0,0,0,0-4H226v4Z"/>
    <path d="M15.18,181.36a4.81,4.81,0,0,1-4.8-4.79V162.16a4.83,4.83,0,0,1,4.8-4.8H44a4.83,4.83,0,0,1,4.8,4.8v2.41H44a2.3,2.3,0,0,0-.7-1.7,2.33,2.33,0,0,0-1.7-.71h-24a2.33,2.33,0,0,0-1.7.71,2.3,2.3,0,0,0-.7,1.7v9.59a2.3,2.3,0,0,0,.7,1.7,2.33,2.33,0,0,0,1.7.71h24a2.33,2.33,0,0,0,1.7-.71,2.3,2.3,0,0,0,.7-1.7v-2.4H20V167h26.4a2.41,2.41,0,0,1,2.4,2.39v7.21a4.81,4.81,0,0,1-4.8,4.79Z"/>
    <path d="M51.18,181.36v-19.2a4.81,4.81,0,0,1,4.79-4.8H84.78a4.83,4.83,0,0,1,4.79,4.8v19.2H84.78v-9.6H56v9.6ZM84.78,167v-2.4a2.42,2.42,0,0,0-2.41-2.41h-24a2.41,2.41,0,0,0-2.4,2.41V167Z"/>
    <path d="M96.76,181.36A4.81,4.81,0,0,1,92,176.57V157.36h4.79v16.8a2.42,2.42,0,0,0,2.41,2.41h26.4v4.79Z"/>
    <path d="M128,181.36v-19.2a4.83,4.83,0,0,1,4.79-4.8h28.81a4.56,4.56,0,0,1,3.39,1.42,4.61,4.61,0,0,1,1.4,3.38v19.2h-4.79v-9.6H132.76v9.6ZM161.57,167v-2.4a2.41,2.41,0,0,0-2.4-2.41h-24a2.42,2.42,0,0,0-2.41,2.41V167Z"/>
    <path d="M168.76,181.36v-9.6a2.39,2.39,0,0,1,2.39-2.4,2.37,2.37,0,0,1-2.39-2.39v-9.61h4.8v7.21a2.28,2.28,0,0,0,.7,1.69,2.31,2.31,0,0,0,1.7.71h19.19a2.42,2.42,0,0,0,2.41-2.4v-7.21h4.8V167a2.37,2.37,0,0,1-2.4,2.39,2.39,2.39,0,0,1,2.4,2.4v9.6h-4.8v-7.2a2.41,2.41,0,0,0-2.41-2.4H176a2.39,2.39,0,0,0-2.4,2.4v7.2Z"/>
    <path d="M219.15,181.36v-9.6h-9.59a4.81,4.81,0,0,1-4.8-4.79v-9.61h4.8v7.21a2.28,2.28,0,0,0,.7,1.69,2.31,2.31,0,0,0,1.7.71h19.19a2.42,2.42,0,0,0,2.41-2.4v-7.21h4.8V167a4.6,4.6,0,0,1-1.4,3.38,4.64,4.64,0,0,1-3.4,1.41H224v9.6Z"/>
</svg>