<?xml version="1.0" encoding="utf-8"?>
<!-- Generator: Adobe Illustrator 26.0.3, SVG Export Plug-In . SVG Version: 6.00 Build 0)  -->
<svg version="1.1" id="Слой_1" xmlns="http://www.w3.org/2000/svg" xmlns:xlink="http://www.w3.org/1999/xlink" x="0px" y="0px"
	 viewBox="0 0 256 256" style="enable-background:new 0 0 256 256;" xml:space="preserve">
<path d="M11,15.3c-0.1-9.7,10.6-9.7,10.6,0c0,0,0,52.5,0,52.5h10.6V15.3c0-4.1,2.4-7.5,5.3-7.5s5.3,3.4,5.3,7.5v52.5h10.6V15.3
	c0-4.1,2.4-7.5,5.3-7.5c2.9,0,5.3,3.4,5.3,7.5v90c-0.1,13.3-7.6,23.4-17.6,22.5l5.7,97.6c0.6,11.9-5.6,22.2-14.5,22.3
	c-8.1,0.1-14.7-9.6-14.5-21c0-1.9,5.7-97.2,5.7-99c-10,0.9-17.5-9.2-17.6-22.5C11,105.3,11,15.3,11,15.3z"/>
<path d="M245.9,15.8c-3.6-20.9-41.4,4-38.5,29.9c0,0,0,67.3,0,67.3c0,10.5,8.2,16.3,17.1,14.9l-13.7,95.6
	c-1.7,11.2,4.8,21.8,14.4,23.8s18.7-5.6,20.4-16.8C246.4,226.1,245.6,20.2,245.9,15.8z"/>
<g>
	<path d="M94,8.4c2.4,0,4.8,0,7.3,0c2.5,0,5,0,7.4,0.1c2.4,0.1,4.7,0.2,6.9,0.3l-0.3,5.5H95.5c-1.4,0-2.5,0.4-3.2,1.1
		c-0.7,0.7-1,1.9-1,3.5v28.8c0,1.6,0.3,2.7,1,3.5c0.7,0.7,1.7,1.1,3.2,1.1h19.8l0.3,5.5c-2.2,0.1-4.5,0.2-6.9,0.3
		c-2.4,0-4.9,0.1-7.4,0.1c-2.5,0-4.9,0-7.3,0c-3,0-5.3-0.8-7.1-2.4c-1.8-1.6-2.7-3.8-2.7-6.4V17.2c0-2.7,0.9-4.9,2.7-6.5
		C88.6,9.2,91,8.4,94,8.4z M85.5,29.2h27.1v5.5H85.5V29.2z"/>
	<path d="M150.6,36.4l-0.1,4.9L134,41.4c-1.6,0-2.8,0.5-3.4,1.3c-0.6,0.8-1,1.9-1,3.3v2.2c0,1.7,0.4,3,1.3,3.8s2.2,1.2,4,1.2
		c1.3,0,2.8-0.3,4.5-0.8s3.3-1.3,5-2.3c1.7-1,3.2-2.3,4.5-3.9v4.5c-0.5,0.7-1.2,1.5-2.2,2.4c-1,0.9-2.1,1.8-3.5,2.7
		c-1.4,0.9-2.9,1.6-4.5,2.2c-1.7,0.6-3.5,0.9-5.4,0.9c-2.1,0-4-0.4-5.6-1.1c-1.6-0.7-2.9-1.8-3.8-3.3c-0.9-1.5-1.4-3.3-1.4-5.4v-3.8
		c0-2.7,0.9-4.9,2.6-6.4c1.8-1.5,4.2-2.3,7.3-2.3H150.6z M141.4,22.1c2.7,0,5,0.3,6.8,1c1.8,0.7,3.2,1.9,4.2,3.6
		c0.9,1.7,1.4,4,1.4,6.9v24.5h-5.5l-1.1-7.6l-0.4-0.9v-16c0-2.1-0.5-3.6-1.4-4.5c-1-0.9-2.8-1.4-5.5-1.4c-1.8,0-4.1,0.1-6.9,0.3
		c-2.8,0.2-5.5,0.4-8.2,0.6l-0.6-5c1.6-0.3,3.4-0.6,5.4-0.8c2-0.2,4-0.4,6.1-0.6S139.7,22.1,141.4,22.1z"/>
	<path d="M185,23v5.2h-24.3v-4.8l6.9-0.4H185z M174,12.7v35.4c0,1.6,0.3,2.8,1,3.5c0.7,0.7,1.9,1,3.6,1h5.2l0.8,5.1
		c-0.8,0.2-1.7,0.4-2.8,0.6c-1,0.1-2.1,0.3-3.1,0.3c-1,0.1-1.9,0.1-2.5,0.1c-3,0-5.3-0.8-6.8-2.4c-1.6-1.6-2.4-4-2.4-7.1V12.7H174z"
		/>
</g>
<g>
	<path d="M115,134.7c0-13.8,20.1-16.1,20.1-26c0-2.6-1.1-4.8-4-4.8c-2.9,0-4.7,2.7-4.7,6.4c0,8.5,9.5,19.8,18.3,26.3
		c3.3,2.7,6.5,4.5,9.3,5.3l-1.9,5.9c-3.7-1.1-7.6-3.2-11.7-6.5c-10.4-8-20.1-21.5-20.1-30.9c0-6.4,4.3-11.5,10.7-11.5
		c6.2,0,9.8,3.9,9.8,9.7c0,11.7-18.9,15.4-18.9,25.6c0,4.8,3.7,8,8.4,8c3.4,0,6.7-2.2,9.4-5.3c3.4-4,5.9-9.3,7.4-15.7h6.6
		c-1.8,7.1-4.8,13.5-9,19c-3.9,4.5-8.7,7.6-15.3,7.6C120.7,147.9,115,142.3,115,134.7z"/>
</g>
<g>
	<path d="M81.6,186c1.9,0,3.5,0.3,4.6,0.8c1.2,0.5,2,1.4,2.6,2.7c0.5,1.3,0.8,3,0.8,5.3c0,1.6-0.2,3-0.5,4c-0.3,1.1-0.8,1.9-1.4,2.5
		c-0.6,0.6-1.5,1-2.6,1.2v0.2c0.4,0.1,0.8,0.4,1.2,0.7c0.4,0.4,0.8,0.8,1.1,1.4c0.4,0.6,0.6,1.4,0.8,2.3l2.3,9.5h-3.7l-2.1-9.4
		c-0.3-1.1-0.7-1.9-1.2-2.4s-1.1-0.7-1.9-0.7c-1.5,0-2.7,0-3.8,0c-1.1,0-1.9,0-2.6-0.1c-0.7,0-1.3,0-1.7,0l0.1-3.5h8
		c1.1,0,2-0.2,2.7-0.5c0.7-0.3,1.1-0.9,1.4-1.6c0.3-0.8,0.4-1.9,0.4-3.3s-0.1-2.5-0.4-3.3c-0.3-0.8-0.8-1.3-1.4-1.6
		c-0.7-0.3-1.6-0.5-2.7-0.5c-2,0-3.7,0-5.1,0c-1.4,0-2.4,0-2.9,0l-0.5-3.3c0.9-0.1,1.7-0.2,2.5-0.3c0.8-0.1,1.7-0.1,2.6-0.1
		C79.2,186,80.3,186,81.6,186z M76.6,186.4v30.2h-3.5v-30.2H76.6z"/>
	<path d="M101.7,194.7c2.6,0,4.5,0.6,5.7,1.8c1.2,1.2,1.8,2.9,1.8,5.2c0,1.9-0.3,3.4-1,4.5c-0.7,1.1-1.8,1.6-3.3,1.6H95v-3h9
		c0.8,0,1.3-0.3,1.5-0.9c0.2-0.6,0.4-1.3,0.4-2.1c0-1.3-0.3-2.2-0.9-2.8c-0.6-0.6-1.6-0.8-3.1-0.8c-1.2,0-2.1,0.2-2.8,0.7
		c-0.7,0.4-1.2,1.2-1.4,2.3c-0.3,1.1-0.4,2.6-0.4,4.6c0,2.2,0.2,3.9,0.5,5c0.3,1.2,0.9,2,1.6,2.4c0.8,0.4,1.8,0.7,3,0.7
		c0.9,0,1.9,0,3-0.2c1.1-0.1,2.1-0.2,3-0.4l0.4,2.8c-0.6,0.3-1.2,0.5-2,0.7c-0.8,0.2-1.6,0.3-2.5,0.4c-0.8,0.1-1.6,0.1-2.3,0.1
		c-2,0-3.6-0.4-4.8-1.1c-1.2-0.8-2.1-2-2.7-3.6c-0.6-1.7-0.8-3.8-0.8-6.5c0-2.8,0.3-5,0.8-6.7c0.6-1.6,1.4-2.8,2.6-3.5
		C98.3,195,99.8,194.7,101.7,194.7z"/>
	<path d="M119.3,194.7c0.7,0,1.6,0,2.4,0.1c0.9,0.1,1.7,0.1,2.6,0.2c0.9,0.1,1.6,0.2,2.3,0.4l-0.2,3c-1.1-0.1-2.2-0.1-3.3-0.2
		c-1.1,0-2.2-0.1-3.2-0.1c-1,0-1.8,0-2.4,0.1c-0.6,0.1-1,0.3-1.3,0.7c-0.3,0.4-0.4,0.9-0.4,1.8c0,1,0.2,1.7,0.6,2
		c0.4,0.3,1,0.6,1.8,0.8l4.9,1.4c1.4,0.4,2.4,1.1,3,1.9c0.7,0.8,1,2.2,1,4c0,1.8-0.3,3.1-0.8,4c-0.5,0.9-1.3,1.5-2.4,1.8
		c-1.1,0.3-2.5,0.5-4.2,0.5c-0.6,0-1.6,0-2.8-0.1c-1.2-0.1-2.6-0.2-4.1-0.6l0.2-2.9c0.5,0,1.1,0.1,1.8,0.1c0.6,0,1.3,0,2,0
		c0.7,0,1.4,0,2.2,0c1.3,0,2.2-0.1,3-0.2c0.7-0.1,1.2-0.4,1.5-0.8c0.3-0.4,0.4-1,0.4-1.8c0-1-0.2-1.6-0.7-2
		c-0.5-0.3-1.1-0.6-1.9-0.9l-4.8-1.4c-1-0.3-1.8-0.7-2.3-1.2c-0.6-0.5-1-1.2-1.2-1.9c-0.2-0.8-0.4-1.7-0.4-2.9
		c0-1.6,0.2-2.9,0.7-3.7c0.5-0.9,1.2-1.4,2.2-1.8C116.4,194.8,117.7,194.7,119.3,194.7z"/>
	<path d="M138.6,194.7c2.6,0,4.5,0.6,5.7,1.8c1.2,1.2,1.8,2.9,1.8,5.2c0,1.9-0.3,3.4-1,4.5c-0.7,1.1-1.8,1.6-3.3,1.6h-9.9v-3h9
		c0.8,0,1.3-0.3,1.5-0.9c0.2-0.6,0.3-1.3,0.3-2.1c0-1.3-0.3-2.2-0.9-2.8c-0.6-0.6-1.6-0.8-3.1-0.8c-1.2,0-2.1,0.2-2.8,0.7
		c-0.7,0.4-1.1,1.2-1.4,2.3c-0.3,1.1-0.4,2.6-0.4,4.6c0,2.2,0.2,3.9,0.5,5c0.3,1.2,0.9,2,1.6,2.4c0.8,0.4,1.8,0.7,3,0.7
		c0.9,0,1.9,0,3-0.2c1.1-0.1,2.1-0.2,3-0.4l0.3,2.8c-0.6,0.3-1.2,0.5-2,0.7c-0.8,0.2-1.6,0.3-2.5,0.4c-0.8,0.1-1.6,0.1-2.3,0.1
		c-2,0-3.6-0.4-4.8-1.1s-2.1-2-2.7-3.6c-0.6-1.7-0.8-3.8-0.8-6.5c0-2.8,0.3-5,0.8-6.7c0.6-1.6,1.4-2.8,2.6-3.5
		C135.2,195,136.7,194.7,138.6,194.7z"/>
	<path d="M153,195.2l0.4,4.1l0.3,0.6v16.7h-3.4v-21.4H153z M161.4,194.7l-0.4,3.9h-1.1c-1,0-1.9,0.2-2.9,0.7c-1,0.5-2.2,1.1-3.6,2
		l-0.2-2.6c1.2-1.3,2.5-2.3,3.8-3c1.3-0.7,2.5-1.1,3.7-1.1H161.4z"/>
	<path d="M180.2,195.2l-6.1,20.3c-0.1,0.3-0.3,0.6-0.5,0.8c-0.2,0.2-0.4,0.3-0.7,0.3h-3c-0.3,0-0.5-0.1-0.7-0.3
		c-0.2-0.2-0.4-0.4-0.5-0.8l-6.1-20.3h3.6l4,14.7c0.2,0.6,0.4,1.2,0.5,1.9c0.2,0.6,0.3,1.3,0.4,1.9h0.5c0.2-0.6,0.4-1.3,0.5-1.9
		c0.2-0.6,0.3-1.2,0.5-1.9l4-14.7H180.2z"/>
	<path d="M190.4,194.7c2.6,0,4.5,0.6,5.7,1.8c1.2,1.2,1.8,2.9,1.8,5.2c0,1.9-0.3,3.4-1,4.5c-0.7,1.1-1.8,1.6-3.3,1.6h-9.9v-3h9
		c0.8,0,1.3-0.3,1.5-0.9c0.2-0.6,0.3-1.3,0.3-2.1c0-1.3-0.3-2.2-0.9-2.8c-0.6-0.6-1.6-0.8-3.1-0.8c-1.2,0-2.1,0.2-2.8,0.7
		c-0.7,0.4-1.1,1.2-1.4,2.3c-0.3,1.1-0.4,2.6-0.4,4.6c0,2.2,0.2,3.9,0.5,5c0.3,1.2,0.9,2,1.6,2.4c0.8,0.4,1.8,0.7,3,0.7
		c0.9,0,1.9,0,3-0.2c1.1-0.1,2.1-0.2,3-0.4l0.3,2.8c-0.6,0.3-1.2,0.5-2,0.7c-0.8,0.2-1.6,0.3-2.5,0.4c-0.8,0.1-1.6,0.1-2.3,0.1
		c-2,0-3.6-0.4-4.8-1.1c-1.2-0.8-2.1-2-2.7-3.6c-0.6-1.7-0.8-3.8-0.8-6.5c0-2.8,0.3-5,0.8-6.7c0.6-1.6,1.4-2.8,2.6-3.5
		C187,195,188.5,194.7,190.4,194.7z"/>
</g>
</svg>
